#!OML:ASF I:\Actors\actors\Patient Classification 2\Patient 1\Session 1\actor1.ASF
:FULLY-SPECIFIED
:DEGREES
361
root 0.0585209 18.5846 3.61212 14.9728 -13.815 -3.88248
lowerback 28.1878 2.5405 1.87317
upperback 6.75347 3.86284 2.10722
thorax -8.00891 1.75724 -0.0390811
lowerneck -13.3438 -0.250612 7.24219
upperneck 29.0298 -0.803834 -5.10285
head 11.6056 -0.21904 -3.26321
rclavicle -1.51076e-014 -5.96354e-015
rhumerus -11.6201 48.4018 -98.4337
rradius 105.586
rwrist -50.6642
rhand -24.1053 -29.3424
rfingers 7.12502
rthumb 2.37565 -59.309
lclavicle -1.51076e-014 -5.96354e-015
lhumerus -18.6893 -40.1204 56.9944
lradius 76.4611
lwrist 19.6849
lhand -24.5862 -50.3682
lfingers 7.12502
lthumb 1.91118 -20.397
rfemur -22.0771 8.46784 12.8337
rtibia 14.177
rfoot -12.1199 -8.35355
rtoes -7.96397
lfemur -29.017 10.4165 -14.7182
ltibia 36.3375
lfoot -22.1322 8.74973
ltoes -55.1078
362
root 0.124991 18.5633 3.5817 15.3777 -14.3698 -4.15331
lowerback 28.4015 2.68189 1.79245
upperback 6.84436 4.01951 2.15977
thorax -8.01973 1.82851 0.0064891
lowerneck -13.8155 -0.199871 6.35645
upperneck 29.3116 -0.822277 -4.13295
head 11.8274 -0.201993 -2.76353
rclavicle -2.38542e-015 6.36111e-015
rhumerus -10.9682 48.2992 -98.5201
rradius 105.168
rwrist -50.2398
rhand -24.2739 -29.3677
rfingers 7.12502
rthumb 2.21281 -59.336
lclavicle -2.38542e-015 6.36111e-015
lhumerus -16.3726 -39.4742 55.1548
lradius 75.08
lwrist 19.7079
lhand -24.5689 -51.6105
lfingers 7.12502
lthumb 1.92793 -21.6395
rfemur -22.7657 8.69922 12.7419
rtibia 14.2337
rfoot -11.9249 -8.16138
rtoes -7.64237
lfemur -29.877 10.857 -14.8178
ltibia 37.1302
lfoot -22.4433 8.80817
ltoes -55.0226
363
root 0.195915 18.5418 3.55622 15.7938 -14.8368 -4.41957
lowerback 28.6186 2.70949 1.81253
upperback 6.87694 4.06157 2.1938
thorax -8.09003 1.84362 0.0109087
lowerneck -14.0343 -0.106765 6.07499
upperneck 29.2691 -0.717734 -3.84709
head 11.8669 -0.153486 -2.59494
rclavicle 6.75868e-015 -7.15625e-015
rhumerus -10.381 48.0794 -98.5097
rradius 104.739
rwrist -49.6166
rhand -24.5289 -29.4471
rfingers 7.12502
rthumb 1.96657 -59.4178
lclavicle 6.75868e-015 -7.15625e-015
lhumerus -14.1532 -38.7871 53.6122
lradius 73.6492
lwrist 19.6454
lhand -24.6056 -53.3583
lfingers 7.12502
lthumb 1.89251 -23.3869
rfemur -23.4014 8.78977 12.6771
rtibia 14.2241
rfoot -11.6774 -7.94796
rtoes -7.61221
lfemur -30.7409 11.1926 -14.9121
ltibia 37.9072
lfoot -22.7918 8.84369
ltoes -54.8338
364
root 0.267855 18.5212 3.5373 16.149 -15.3992 -4.68408
lowerback 28.8611 2.74894 1.79287
upperback 6.87646 4.10642 2.19889
thorax -8.21035 1.85954 0.00287668
lowerneck -14.0863 0.00622703 6.18917
upperneck 29.0863 -0.573475 -3.91928
head 11.814 -0.0905975 -2.61823
rclavicle -3.45885e-014 3.33958e-014
rhumerus -9.69721 47.6803 -98.2662
rradius 104.287
rwrist -49.0868
rhand -25.084 -29.4315
rfingers 7.12502
rthumb 1.43047 -59.4065
lclavicle -3.45885e-014 3.33958e-014
lhumerus -11.9427 -38.1772 52.3347
lradius 72.1598
lwrist 19.4592
lhand -24.7225 -55.246
lfingers 7.12502
lthumb 1.77959 -25.2737
rfemur -23.9384 8.91116 12.6133
rtibia 14.1721
rfoot -11.3456 -7.75457
rtoes -8.25004
lfemur -31.4822 11.5974 -15.0263
ltibia 38.6492
lfoot -23.0962 8.86038
ltoes -54.6406
365
root 0.335494 18.5017 3.52159 16.4435 -16.184 -4.99628
lowerback 28.9547 2.7541 1.60243
upperback 7.00568 4.04898 2.21926
thorax -8.12495 1.8329 0.154435
lowerneck -14.2289 0.285447 6.03702
upperneck 28.9759 -0.161679 -3.88394
head 11.8264 0.0753352 -2.52128
rclavicle -3.85642e-014 -1.74931e-014
rhumerus -8.61925 47.5223 -97.5511
rradius 103.901
rwrist -48.8196
rhand -25.9726 -29.4981
rfingers 7.12502
rthumb 0.572175 -59.477
lclavicle -3.85642e-014 -1.74931e-014
lhumerus -9.88236 -37.1943 51.3396
lradius 70.6398
lwrist 19.142
lhand -24.8193 -56.7961
lfingers 7.12502
lthumb 1.68609 -26.823
rfemur -24.3916 9.12852 12.6019
rtibia 14.0662
rfoot -10.8981 -7.55124
rtoes -9.28975
lfemur -32.0516 12.0567 -15.0988
ltibia 39.3445
lfoot -23.3579 9.0645
ltoes -54.5227
366
root 0.400037 18.482 3.50774 16.7487 -17.02 -5.32793
lowerback 29.0703 2.76768 1.42929
upperback 7.04895 4.00321 2.15601
thorax -8.13922 1.80981 0.195984
lowerneck -14.2888 0.560204 6.14381
upperneck 28.9331 0.216929 -3.9776
head 11.846 0.239664 -2.52264
rclavicle 5.40694e-014 -5.76476e-014
rhumerus -7.93861 47.072 -97.0829
rradius 103.702
rwrist -48.1966
rhand -26.9195 -30.0395
rfingers 7.12502
rthumb -0.342386 -60.019
lclavicle 5.40694e-014 -5.76476e-014
lhumerus -7.82141 -36.4454 50.4786
lradius 69.1088
lwrist 18.7774
lhand -25.0443 -58.3955
lfingers 7.12502
lthumb 1.46879 -28.4208
rfemur -24.8102 9.29668 12.6362
rtibia 13.8711
rfoot -10.3765 -7.30494
rtoes -10.0178
lfemur -32.5629 12.4663 -15.1331
ltibia 39.9804
lfoot -23.6603 9.36456
ltoes -54.3668
367
root 0.462269 18.4673 3.49949 17.0273 -17.782 -5.68638
lowerback 29.1619 2.67054 1.27709
upperback 7.03805 3.8243 2.07361
thorax -8.1996 1.72406 0.250394
lowerneck -14.1676 0.871089 6.43627
upperneck 28.8293 0.662411 -4.2609
head 11.8104 0.429785 -2.61538
rclavicle -1.09332e-014 -1.37161e-014
rhumerus -7.65064 46.6158 -96.8696
rradius 103.644
rwrist -46.8742
rhand -28.459 -31.2092
rfingers 7.12502
rthumb -1.82919 -61.1811
lclavicle -1.09332e-014 -1.37161e-014
lhumerus -6.03292 -35.6248 49.961
lradius 67.659
lwrist 18.2775
lhand -25.664 -60.0529
lfingers 7.12502
lthumb 0.870306 -30.075
rfemur -25.1189 9.37544 12.7553
rtibia 13.6214
rfoot -9.83572 -7.03503
rtoes -10.2718
lfemur -32.9835 12.8376 -15.0999
ltibia 40.5531
lfoot -23.9971 9.57168
ltoes -54.1025
368
root 0.521946 18.4573 3.49708 17.2755 -18.469 -6.05636
lowerback 29.1676 2.48629 1.112
upperback 7.03646 3.53193 2.00629
thorax -8.20869 1.58677 0.372438
lowerneck -14.1044 1.24032 6.49555
upperneck 28.855 1.17408 -4.29258
head 11.8434 0.655886 -2.56744
rclavicle -1.05356e-014 1.25234e-014
rhumerus -7.4611 46.085 -96.5854
rradius 104.059
rwrist -44.5165
rhand -30.7876 -35.2964
rfingers 7.12502
rthumb -4.07803 -65.2371
lclavicle -1.05356e-014 1.25234e-014
lhumerus -4.37192 -34.4886 49.8409
lradius 66.375
lwrist 17.9787
lhand -26.4068 -61.3824
lfingers 7.12502
lthumb 0.152808 -31.4028
rfemur -25.3317 9.47099 12.91
rtibia 13.3592
rfoot -9.3636 -6.83855
rtoes -10.8479
lfemur -33.3179 13.1833 -15.0224
ltibia 41.0646
lfoot -24.2627 9.68571
ltoes -53.7481
369
root 0.57725 18.4466 3.49542 17.5054 -19.1205 -6.34129
lowerback 29.095 2.30711 0.842307
upperback 7.05332 3.21605 1.94895
thorax -8.16393 1.4411 0.576813
lowerneck -14.1246 1.62942 6.4637
upperneck 28.945 1.69763 -4.20378
head 11.9187 0.891962 -2.45766
rclavicle 9.93923e-017 1.79403e-014
rhumerus -7.56919 45.8084 -96.346
rradius 104.183
rwrist -40.0889
rhand -33.9106 -35.0551
rfingers 7.12502
rthumb -7.09324 -64.9162
lclavicle 9.93923e-017 1.79403e-014
lhumerus -2.73971 -33.0411 50.2515
lradius 65.2388
lwrist 18.1005
lhand -27.0477 -62.6208
lfingers 7.12502
lthumb -0.466202 -32.6415
rfemur -25.5236 9.62699 12.9619
rtibia 13.0773
rfoot -8.9068 -6.73203
rtoes -12.017
lfemur -33.6201 13.4849 -15.013
ltibia 41.5113
lfoot -24.4352 9.79751
ltoes -53.4183
370
root 0.625167 18.4375 3.49282 17.6799 -19.804 -6.57612
lowerback 29.0104 2.02417 -0.0112616
upperback 7.05421 2.63572 2.19765
thorax -8.16626 1.18078 1.55182
lowerneck -13.844 2.25853 5.98897
upperneck 28.8974 2.78676 -4.42599
head 11.9087 1.29192 -2.30487
rclavicle 5.71506e-015 2.0773e-014
rhumerus -7.92432 46.3833 -95.9238
rradius 104.415
rwrist -35.5518
rhand -36.0274 -35.2116
rfingers 7.12502
rthumb -9.13623 -64.9937
lclavicle 5.71506e-015 2.0773e-014
lhumerus -2.21927 -30.5465 51.8335
lradius 64.4391
lwrist 18.6109
lhand -26.9965 -63.5728
lfingers 7.12502
lthumb -0.416708 -33.5934
rfemur -25.6455 9.77519 12.9997
rtibia 12.7492
rfoot -8.33656 -6.62499
rtoes -13.2531
lfemur -33.8291 13.8377 -15.042
ltibia 41.8865
lfoot -24.5817 9.92359
ltoes -53.133
